<svg width="55" height="54" viewBox="0 0 55 54" fill="none" xmlns="http://www.w3.org/2000/svg">
<g filter="url(#filter0_d_1_30)">
<path d="M4 22.6349C4 10.134 14.134 0 26.6349 0H28.0952C40.5961 0 50.7301 10.134 50.7301 22.6349V22.6349C50.7301 35.1358 40.5961 45.2698 28.0952 45.2698H26.6349C14.134 45.2698 4 35.1358 4 22.6349V22.6349Z" fill="#D9D9D9"/>
<path fill-rule="evenodd" clip-rule="evenodd" d="M45.5677 36.9131C41.4173 42.0124 35.0908 45.2698 28.0034 45.2698H26.7268C19.6394 45.2698 13.3128 42.0124 9.16248 36.9131C11.8438 33.2656 16.165 30.8984 21.039 30.8984H33.6911C38.5652 30.8984 42.8864 33.2657 45.5677 36.9131Z" fill="#F34242"/>
<path d="M21.0602 22.2756C21.0602 18.7039 23.9556 15.8085 27.5273 15.8085H27.9445C31.5162 15.8085 34.4116 18.7039 34.4116 22.2756V22.2756C34.4116 25.8473 31.5162 28.7427 27.9445 28.7427H27.5273C23.9556 28.7427 21.0602 25.8473 21.0602 22.2756V22.2756Z" fill="#F34242"/>
</g>
<defs>
<filter id="filter0_d_1_30" x="0" y="0" width="54.7301" height="53.2698" filterUnits="userSpaceOnUse" color-interpolation-filters="sRGB">
<feFlood flood-opacity="0" result="BackgroundImageFix"/>
<feColorMatrix in="SourceAlpha" type="matrix" values="0 0 0 0 0 0 0 0 0 0 0 0 0 0 0 0 0 0 127 0" result="hardAlpha"/>
<feOffset dy="4"/>
<feGaussianBlur stdDeviation="2"/>
<feComposite in2="hardAlpha" operator="out"/>
<feColorMatrix type="matrix" values="0 0 0 0 0 0 0 0 0 0 0 0 0 0 0 0 0 0 0.25 0"/>
<feBlend mode="normal" in2="BackgroundImageFix" result="effect1_dropShadow_1_30"/>
<feBlend mode="normal" in="SourceGraphic" in2="effect1_dropShadow_1_30" result="shape"/>
</filter>
</defs>
</svg>
